<svg width="230.18369140625px" height="128.5874755859375px" xmlns="http://www.w3.org/2000/svg" viewBox="200 30 100 100" style="background: rgba(255, 255, 255, 0);"><defs><filter id="editing-hover" x="-100%" y="-100%" width="300%" height="300%"><feFlood flood-color="#f0d5d3" result="flood"></feFlood><feComposite operator="in" in2="SourceAlpha" in="flood" result="shadow"></feComposite><feOffset dx="-1.9" dy="-1.9" in="SourceGraphic" result="offset-1"></feOffset><feOffset dx="1.9" dy="1.9" in="shadow" result="offset-2"></feOffset><feMerge><feMergeNode in="offset-2"></feMergeNode><feMergeNode in="offset-1"></feMergeNode></feMerge></filter></defs><g filter="url(#editing-hover)"><g transform="translate(170.82218626141548, 99.57750129699707)"><path d="M12.22 1.15L12.22 1.15Q6.40 1.15 3.42-2.05L3.42-2.05L3.42-2.05Q0.45-5.25 0.45-10.11L0.45-10.11L0.45-10.11Q0.45-13.57 1.89-17.06L1.89-17.06L1.89-17.06Q3.33-20.54 6.02-23.17L6.02-23.17L6.02-23.17Q8.70-25.79 12.29-26.69L12.29-26.69L12.29-26.69Q10.30-28.10 9.34-30.11L9.34-30.11L9.34-30.11Q8.38-32.13 8.38-34.37L8.38-34.37L8.38-34.37Q8.38-37.70 10.21-40.90L10.21-40.90L10.21-40.90Q12.03-44.10 15.26-46.11L15.26-46.11L15.26-46.11Q18.50-48.13 22.40-48.13L22.40-48.13L22.40-48.13Q26.43-48.13 28.99-46.02L28.99-46.02L28.99-46.02Q31.55-43.90 31.55-40.13L31.55-40.13L31.55-40.13Q31.55-37.31 30.14-35.39L30.14-35.39L30.14-35.39Q28.74-33.47 26.82-33.47L26.82-33.47L26.82-33.47Q25.09-33.47 23.81-35.20L23.81-35.20L23.81-35.20Q24.96-35.58 25.79-37.31L25.79-37.31L25.79-37.31Q26.62-39.04 26.62-40.77L26.62-40.77L26.62-40.77Q26.62-42.62 25.60-43.49L25.60-43.49L25.60-43.49Q24.58-44.35 23.10-44.35L23.10-44.35L23.10-44.35Q21.25-44.35 19.74-43.04L19.74-43.04L19.74-43.04Q18.24-41.73 17.41-39.65L17.41-39.65L17.41-39.65Q16.58-37.57 16.58-35.33L16.58-35.33L16.58-35.33Q16.58-32.26 18.18-29.92L18.18-29.92L18.18-29.92Q19.78-27.58 23.04-26.75L23.04-26.75L23.04-26.75Q19.78-26.05 17.15-23.55L17.15-23.55L17.15-23.55Q14.53-21.06 13.06-17.76L13.06-17.76L13.06-17.76Q11.58-14.46 11.58-11.46L11.58-11.46L11.58-11.46Q11.58-8.58 13.09-6.78L13.09-6.78L13.09-6.78Q14.59-4.99 17.66-4.99L17.66-4.99L17.66-4.99Q20.86-4.99 24.35-6.75L24.35-6.75L24.35-6.75Q27.84-8.51 29.50-11.52L29.50-11.52L30.98-10.88L30.98-10.88Q28.48-5.38 23.30-2.11L23.30-2.11L23.30-2.11Q18.11 1.15 12.22 1.15L12.22 1.15ZM37.06 0.38L37.06 0.38Q33.41 0.38 30.98-2.11L30.98-2.11L30.98-2.11Q28.54-4.61 28.54-9.92L28.54-9.92L28.54-9.92Q28.54-14.66 30.43-19.87L30.43-19.87L30.43-19.87Q32.32-25.09 36.06-28.70L36.06-28.70L36.06-28.70Q39.81-32.32 44.99-32.32L44.99-32.32L44.99-32.32Q47.62-32.32 48.90-31.42L48.90-31.42L48.90-31.42Q50.18-30.53 50.18-29.06L50.18-29.06L50.18-28.80L53.31-43.52L62.78-44.80L55.42-10.24L55.42-10.24Q55.17-9.28 55.17-8.19L55.17-8.19L55.17-8.19Q55.17-6.91 55.78-6.37L55.78-6.37L55.78-6.37Q56.38-5.82 57.79-5.82L57.79-5.82L57.79-5.82Q59.58-5.82 60.90-7.36L60.90-7.36L60.90-7.36Q62.21-8.90 62.98-11.46L62.98-11.46L65.66-11.46L65.66-11.46Q61.76 0 52.80 0L52.80 0L52.80 0Q50.18 0 48.54-1.41L48.54-1.41L48.54-1.41Q46.91-2.82 46.53-5.50L46.53-5.50L46.53-5.50Q44.86-2.94 42.53-1.28L42.53-1.28L42.53-1.28Q40.19 0.38 37.06 0.38L37.06 0.38ZM41.22-5.82L41.22-5.82Q42.75-5.82 44.32-7.23L44.32-7.23L44.32-7.23Q45.89-8.64 46.46-11.14L46.46-11.14L46.46-11.46L49.60-26.11L49.60-26.11Q49.02-28.35 46.98-28.35L46.98-28.35L46.98-28.35Q44.42-28.35 42.37-25.38L42.37-25.38L42.37-25.38Q40.32-22.40 39.17-18.21L39.17-18.21L39.17-18.21Q38.02-14.02 38.02-10.82L38.02-10.82L38.02-10.82Q38.02-7.62 38.94-6.72L38.94-6.72L38.94-6.72Q39.87-5.82 41.22-5.82L41.22-5.82ZM70.27 0.38L70.27 0.38Q66.56 0.38 64.48-1.50L64.48-1.50L64.48-1.50Q62.40-3.39 62.40-7.17L62.40-7.17L62.40-7.17Q62.40-8.70 62.72-10.24L62.72-10.24L67.33-32L76.54-32L71.94-10.24L71.94-10.24Q71.62-8.64 71.62-7.94L71.62-7.94L71.62-7.94Q71.62-5.82 73.79-5.82L73.79-5.82L73.79-5.82Q76.74-5.82 79.26-9.54L79.26-9.54L79.26-9.54Q81.79-13.25 83.33-18.37L83.33-18.37L83.33-18.37Q84.86-23.49 84.86-27.20L84.86-27.20L84.86-27.20Q84.74-26.88 84.03-26.72L84.03-26.72L84.03-26.72Q83.33-26.56 82.82-26.56L82.82-26.56L82.82-26.56Q81.73-26.56 81.12-27.58L81.12-27.58L81.12-27.58Q80.51-28.61 80.51-29.82L80.51-29.82L80.51-29.82Q80.51-31.36 81.50-32.32L81.50-32.32L81.50-32.32Q82.50-33.28 84.48-33.28L84.48-33.28L84.48-33.28Q86.59-33.28 87.55-31.71L87.55-31.71L87.55-31.71Q88.51-30.14 88.51-27.71L88.51-27.71L88.51-27.71Q88.51-21.95 86.53-15.39L86.53-15.39L86.53-15.39Q84.54-8.83 80.45-4.22L80.45-4.22L80.45-4.22Q76.35 0.38 70.27 0.38L70.27 0.38ZM100.16-35.46L100.16-35.46Q98.05-35.46 96.58-36.93L96.58-36.93L96.58-36.93Q95.10-38.40 95.10-40.51L95.10-40.51L95.10-40.51Q95.10-42.62 96.58-44.13L96.58-44.13L96.58-44.13Q98.05-45.63 100.16-45.63L100.16-45.63L100.16-45.63Q102.27-45.63 103.78-44.13L103.78-44.13L103.78-44.13Q105.28-42.62 105.28-40.51L105.28-40.51L105.28-40.51Q105.28-38.40 103.78-36.93L103.78-36.93L103.78-36.93Q102.27-35.46 100.16-35.46L100.16-35.46ZM95.81 0.38L95.81 0.38Q92.74 0.38 90.85-1.54L90.85-1.54L90.85-1.54Q88.96-3.46 88.96-7.30L88.96-7.30L88.96-7.30Q88.96-8.90 89.47-11.46L89.47-11.46L93.82-32L103.04-32L98.43-10.24L98.43-10.24Q98.18-9.28 98.18-8.19L98.18-8.19L98.18-8.19Q98.18-6.91 98.78-6.37L98.78-6.37L98.78-6.37Q99.39-5.82 100.80-5.82L100.80-5.82L100.80-5.82Q102.66-5.82 104.26-7.39L104.26-7.39L104.26-7.39Q105.86-8.96 106.56-11.46L106.56-11.46L109.25-11.46L109.25-11.46Q106.88-4.54 103.17-2.08L103.17-2.08L103.17-2.08Q99.46 0.38 95.81 0.38L95.81 0.38ZM115.71 0.38L115.71 0.38Q110.98 0.38 108.35-2.08L108.35-2.08L108.35-2.08Q105.73-4.54 105.73-9.79L105.73-9.79L105.73-9.79Q105.73-14.21 107.49-19.52L107.49-19.52L107.49-19.52Q109.25-24.83 113.12-28.70L113.12-28.70L113.12-28.70Q116.99-32.58 122.94-32.58L122.94-32.58L122.94-32.58Q126.78-32.58 128.42-30.91L128.42-30.91L128.42-30.91Q130.05-29.25 130.05-26.69L130.05-26.69L130.05-26.69Q130.05-24.45 129.09-23.23L129.09-23.23L129.09-23.23Q128.13-22.02 126.66-22.02L126.66-22.02L126.66-22.02Q125.57-22.02 124.42-22.78L124.42-22.78L124.42-22.78Q125.18-24.90 125.18-26.56L125.18-26.56L125.18-26.56Q125.18-27.78 124.74-28.48L124.74-28.48L124.74-28.48Q124.29-29.18 123.39-29.18L123.39-29.18L123.39-29.18Q121.47-29.18 119.55-26.05L119.55-26.05L119.55-26.05Q117.63-22.91 116.42-18.43L116.42-18.43L116.42-18.43Q115.20-13.95 115.20-10.37L115.20-10.37L115.20-10.37Q115.20-7.23 116.29-6.11L116.29-6.11L116.29-6.11Q117.38-4.99 119.81-4.99L119.81-4.99L119.81-4.99Q123.26-4.99 125.73-6.59L125.73-6.59L125.73-6.59Q128.19-8.19 131.14-11.46L131.14-11.46L133.31-11.46L133.31-11.46Q126.21 0.38 115.71 0.38L115.71 0.38ZM140.29 0.38L140.29 0.38Q135.55 0.38 132.93-2.08L132.93-2.08L132.93-2.08Q130.30-4.54 130.30-9.79L130.30-9.79L130.30-9.79Q130.30-14.21 132.03-19.52L132.03-19.52L132.03-19.52Q133.76-24.83 137.66-28.70L137.66-28.70L137.66-28.70Q141.57-32.58 147.58-32.58L147.58-32.58L147.58-32.58Q154.62-32.58 154.62-26.43L154.62-26.43L154.62-26.43Q154.62-22.85 152.58-19.84L152.58-19.84L152.58-19.84Q150.53-16.83 147.14-15.01L147.14-15.01L147.14-15.01Q143.74-13.18 139.90-12.93L139.90-12.93L139.90-12.93Q139.78-11.01 139.78-10.37L139.78-10.37L139.78-10.37Q139.78-7.23 140.86-6.11L140.86-6.11L140.86-6.11Q141.95-4.99 144.38-4.99L144.38-4.99L144.38-4.99Q147.84-4.99 150.30-6.59L150.30-6.59L150.30-6.59Q152.77-8.19 155.71-11.46L155.71-11.46L157.89-11.46L157.89-11.46Q150.78 0.38 140.29 0.38L140.29 0.38ZM140.42-16L140.42-16Q142.78-16.13 144.93-17.66L144.93-17.66L144.93-17.66Q147.07-19.20 148.38-21.57L148.38-21.57L148.38-21.57Q149.70-23.94 149.70-26.56L149.70-26.56L149.70-26.56Q149.70-29.18 148.10-29.18L148.10-29.18L148.10-29.18Q145.79-29.18 143.58-25.15L143.58-25.15L143.58-25.15Q141.38-21.12 140.42-16L140.42-16Z" fill="#052a40"></path></g></g><style>text {
  font-size: 64px;
  font-family: Arial Black;
  dominant-baseline: central;
  text-anchor: middle;
}</style></svg>
